<?xml version="1.0" encoding="UTF-8"?>
<!DOCTYPE svg PUBLIC "-//W3C//DTD SVG 1.1//EN" "http://www.w3.org/Graphics/SVG/1.1/DTD/svg11.dtd">
<svg xmlns="http://www.w3.org/2000/svg" version="1.1" width="16px" height="16px" style="shape-rendering:geometricPrecision; text-rendering:geometricPrecision; image-rendering:optimizeQuality; fill-rule:evenodd; clip-rule:evenodd" xmlns:xlink="http://www.w3.org/1999/xlink">
<g><path style="opacity:1" fill="#5883a7" d="M -0.5,-0.5 C 4.83333,-0.5 10.1667,-0.5 15.5,-0.5C 15.5,4.83333 15.5,10.1667 15.5,15.5C 10.1667,15.5 4.83333,15.5 -0.5,15.5C -0.5,10.1667 -0.5,4.83333 -0.5,-0.5 Z"/></g>
<g><path style="opacity:1" fill="#5d7482" d="M 3.5,6.5 C 5.9479,5.52693 8.61456,5.1936 11.5,5.5C 11.5,6.5 11.5,7.5 11.5,8.5C 11.1667,8.5 10.8333,8.5 10.5,8.5C 8.72113,6.65649 6.38779,5.98983 3.5,6.5 Z"/></g>
<g><path style="opacity:1" fill="#6d7065" d="M 3.5,6.5 C 6.38779,5.98983 8.72113,6.65649 10.5,8.5C 8.16667,8.5 5.83333,8.5 3.5,8.5C 3.5,7.83333 3.5,7.16667 3.5,6.5 Z"/></g>
<g><path style="opacity:1" fill="#89a2a9" d="M 3.5,8.5 C 5.83333,8.5 8.16667,8.5 10.5,8.5C 10.8333,8.5 11.1667,8.5 11.5,8.5C 11.5,9.5 11.5,10.5 11.5,11.5C 8.05806,12.1717 5.3914,11.1717 3.5,8.5 Z"/></g>
</svg>
